<mxfile host="app.diagrams.net" modified="2022-03-09T02:10:18.259Z" agent="5.0 (Macintosh; Intel Mac OS X 10_15_7) AppleWebKit/537.36 (KHTML, like Gecko) Chrome/98.0.4758.109 Safari/537.36" etag="WCpD9bqvdrfgnRLVTNE5" version="16.4.2" type="github" pages="4">
  <diagram name="/ home page" id="c9db0220-8083-56f3-ca83-edcdcd058819">
    <mxGraphModel dx="1293" dy="794" grid="1" gridSize="10" guides="1" tooltips="1" connect="1" arrows="1" fold="1" page="1" pageScale="1.5" pageWidth="826" pageHeight="1169" background="none" math="0" shadow="0">
      <root>
        <mxCell id="0" style=";html=1;" />
        <mxCell id="1" style=";html=1;" parent="0" />
        <mxCell id="3d76a8aef4d5c911-1" value="" style="html=1;shadow=0;dashed=0;shape=mxgraph.bootstrap.rect;fillColor=#222222;strokeColor=none;whiteSpace=wrap;rounded=0;fontSize=12;fontColor=#000000;align=center;" parent="1" vertex="1">
          <mxGeometry y="80" width="1230" height="40" as="geometry" />
        </mxCell>
        <mxCell id="3d76a8aef4d5c911-2" value="Small R logo" style="html=1;shadow=0;dashed=0;fillColor=none;strokeColor=none;shape=mxgraph.bootstrap.rect;fontColor=#999999;fontSize=14;whiteSpace=wrap;" parent="3d76a8aef4d5c911-1" vertex="1">
          <mxGeometry width="123" height="40" as="geometry" />
        </mxCell>
        <mxCell id="3d76a8aef4d5c911-3" value="&lt;b&gt;Home&lt;/b&gt;" style="html=1;shadow=0;dashed=0;shape=mxgraph.bootstrap.rect;fillColor=#000000;strokeColor=none;fontColor=#ffffff;spacingRight=30;whiteSpace=wrap;" parent="3d76a8aef4d5c911-1" vertex="1">
          <mxGeometry x="123" width="138.375" height="40" as="geometry" />
        </mxCell>
        <mxCell id="3d76a8aef4d5c911-7" value="Photographs" style="html=1;shadow=0;dashed=0;fillColor=none;strokeColor=none;shape=mxgraph.bootstrap.rect;fontColor=#999999;whiteSpace=wrap;" parent="3d76a8aef4d5c911-1" vertex="1">
          <mxGeometry x="430.5" width="123" height="40" as="geometry" />
        </mxCell>
        <mxCell id="3d76a8aef4d5c911-8" value="Shop" style="html=1;shadow=0;dashed=0;fillColor=none;strokeColor=none;shape=mxgraph.bootstrap.rect;fontColor=#999999;whiteSpace=wrap;" parent="3d76a8aef4d5c911-1" vertex="1">
          <mxGeometry x="553.5" width="107.625" height="40" as="geometry" />
        </mxCell>
        <mxCell id="3d76a8aef4d5c911-10" value="Login" style="html=1;shadow=0;dashed=0;fillColor=none;strokeColor=none;shape=mxgraph.bootstrap.rect;fontColor=#999999;whiteSpace=wrap;" parent="3d76a8aef4d5c911-1" vertex="1">
          <mxGeometry x="1122.375" width="107.625" height="40" as="geometry" />
        </mxCell>
        <mxCell id="6_kaInjYQc0dFKk6up9O-6" value="Index" style="html=1;shadow=0;dashed=0;fillColor=none;strokeColor=none;shape=mxgraph.bootstrap.rect;fontColor=#999999;whiteSpace=wrap;" vertex="1" parent="3d76a8aef4d5c911-1">
          <mxGeometry x="290" width="123" height="40" as="geometry" />
        </mxCell>
        <mxCell id="6_kaInjYQc0dFKk6up9O-3" value="" style="rounded=0;whiteSpace=wrap;html=1;fillColor=#99FFFF;" vertex="1" parent="1">
          <mxGeometry width="1230" height="80" as="geometry" />
        </mxCell>
        <mxCell id="6_kaInjYQc0dFKk6up9O-4" value="Retrospective" style="text;html=1;strokeColor=none;fillColor=none;align=center;verticalAlign=middle;whiteSpace=wrap;rounded=0;fontSize=51;" vertex="1" parent="1">
          <mxGeometry x="20" y="20" width="310" height="35" as="geometry" />
        </mxCell>
        <mxCell id="23phkxzjyzWYcFBjqeep-15" value="Some quick example text to build on the card title and make up the bulk of the card&#39;s content." style="html=1;shadow=0;dashed=0;shape=mxgraph.bootstrap.rrect;rSize=5;strokeColor=#DFDFDF;html=1;whiteSpace=wrap;fillColor=#ffffff;fontColor=#000000;verticalAlign=bottom;align=left;spacing=20;fontSize=14;" vertex="1" parent="1">
          <mxGeometry x="80" y="240" width="320" height="370" as="geometry" />
        </mxCell>
        <mxCell id="23phkxzjyzWYcFBjqeep-16" value="Image cap" style="html=1;shadow=0;dashed=0;shape=mxgraph.bootstrap.topButton;rSize=5;perimeter=none;whiteSpace=wrap;fillColor=#868E96;strokeColor=#DFDFDF;fontColor=#DEE2E6;resizeWidth=1;fontSize=18;" vertex="1" parent="23phkxzjyzWYcFBjqeep-15">
          <mxGeometry width="320" height="180" relative="1" as="geometry" />
        </mxCell>
        <mxCell id="23phkxzjyzWYcFBjqeep-17" value="Some quick example text to build on the card title and make up the bulk of the card&#39;s content." style="html=1;shadow=0;dashed=0;shape=mxgraph.bootstrap.rrect;rSize=5;strokeColor=#DFDFDF;html=1;whiteSpace=wrap;fillColor=#ffffff;fontColor=#000000;verticalAlign=bottom;align=left;spacing=20;fontSize=14;" vertex="1" parent="1">
          <mxGeometry x="459.5" y="240" width="320" height="370" as="geometry" />
        </mxCell>
        <mxCell id="23phkxzjyzWYcFBjqeep-18" value="Image cap" style="html=1;shadow=0;dashed=0;shape=mxgraph.bootstrap.topButton;rSize=5;perimeter=none;whiteSpace=wrap;fillColor=#868E96;strokeColor=#DFDFDF;fontColor=#DEE2E6;resizeWidth=1;fontSize=18;" vertex="1" parent="23phkxzjyzWYcFBjqeep-17">
          <mxGeometry width="320" height="180" relative="1" as="geometry" />
        </mxCell>
        <mxCell id="23phkxzjyzWYcFBjqeep-19" value="Some quick example text to build on the card title and make up the bulk of the card&#39;s content." style="html=1;shadow=0;dashed=0;shape=mxgraph.bootstrap.rrect;rSize=5;strokeColor=#DFDFDF;html=1;whiteSpace=wrap;fillColor=#ffffff;fontColor=#000000;verticalAlign=bottom;align=left;spacing=20;fontSize=14;" vertex="1" parent="1">
          <mxGeometry x="840" y="240" width="320" height="370" as="geometry" />
        </mxCell>
        <mxCell id="23phkxzjyzWYcFBjqeep-20" value="Image cap" style="html=1;shadow=0;dashed=0;shape=mxgraph.bootstrap.topButton;rSize=5;perimeter=none;whiteSpace=wrap;fillColor=#868E96;strokeColor=#DFDFDF;fontColor=#DEE2E6;resizeWidth=1;fontSize=18;" vertex="1" parent="23phkxzjyzWYcFBjqeep-19">
          <mxGeometry width="320" height="180" relative="1" as="geometry" />
        </mxCell>
        <mxCell id="23phkxzjyzWYcFBjqeep-22" value="Footer" style="html=1;shadow=0;dashed=0;shape=mxgraph.bootstrap.rrect;rSize=5;strokeColor=#B8DCFE;strokeWidth=1;fillColor=#CCE7FE;fontColor=#004583;whiteSpace=wrap;align=center;verticalAlign=middle;spacingLeft=10;fontSize=51;" vertex="1" parent="1">
          <mxGeometry y="720" width="1240" height="250" as="geometry" />
        </mxCell>
      </root>
    </mxGraphModel>
  </diagram>
  <diagram name="Index" id="-jwVXMNPlqYaNXGx-u_E">
    <mxGraphModel dx="1293" dy="794" grid="1" gridSize="10" guides="1" tooltips="1" connect="1" arrows="1" fold="1" page="1" pageScale="1.5" pageWidth="826" pageHeight="1169" background="none" math="0" shadow="0">
      <root>
        <mxCell id="JL98l5iuzYsjPP6MtUeZ-0" style=";html=1;" />
        <mxCell id="JL98l5iuzYsjPP6MtUeZ-1" style=";html=1;" parent="JL98l5iuzYsjPP6MtUeZ-0" />
        <mxCell id="JL98l5iuzYsjPP6MtUeZ-2" value="" style="html=1;shadow=0;dashed=0;shape=mxgraph.bootstrap.rect;fillColor=#222222;strokeColor=none;whiteSpace=wrap;rounded=0;fontSize=12;fontColor=#000000;align=center;" vertex="1" parent="JL98l5iuzYsjPP6MtUeZ-1">
          <mxGeometry y="80" width="1230" height="40" as="geometry" />
        </mxCell>
        <mxCell id="JL98l5iuzYsjPP6MtUeZ-3" value="Small R logo" style="html=1;shadow=0;dashed=0;fillColor=none;strokeColor=none;shape=mxgraph.bootstrap.rect;fontColor=#999999;fontSize=14;whiteSpace=wrap;" vertex="1" parent="JL98l5iuzYsjPP6MtUeZ-2">
          <mxGeometry width="123" height="40" as="geometry" />
        </mxCell>
        <mxCell id="JL98l5iuzYsjPP6MtUeZ-4" value="&lt;font color=&quot;#cccccc&quot;&gt;Home&lt;/font&gt;" style="html=1;shadow=0;dashed=0;shape=mxgraph.bootstrap.rect;fillColor=#000000;strokeColor=none;fontColor=#ffffff;spacingRight=30;whiteSpace=wrap;" vertex="1" parent="JL98l5iuzYsjPP6MtUeZ-2">
          <mxGeometry x="123" width="138.375" height="40" as="geometry" />
        </mxCell>
        <mxCell id="JL98l5iuzYsjPP6MtUeZ-5" value="Photographs" style="html=1;shadow=0;dashed=0;fillColor=none;strokeColor=none;shape=mxgraph.bootstrap.rect;fontColor=#999999;whiteSpace=wrap;" vertex="1" parent="JL98l5iuzYsjPP6MtUeZ-2">
          <mxGeometry x="430.5" width="123" height="40" as="geometry" />
        </mxCell>
        <mxCell id="JL98l5iuzYsjPP6MtUeZ-6" value="Shop" style="html=1;shadow=0;dashed=0;fillColor=none;strokeColor=none;shape=mxgraph.bootstrap.rect;fontColor=#999999;whiteSpace=wrap;" vertex="1" parent="JL98l5iuzYsjPP6MtUeZ-2">
          <mxGeometry x="553.5" width="107.625" height="40" as="geometry" />
        </mxCell>
        <mxCell id="JL98l5iuzYsjPP6MtUeZ-7" value="Login" style="html=1;shadow=0;dashed=0;fillColor=none;strokeColor=none;shape=mxgraph.bootstrap.rect;fontColor=#999999;whiteSpace=wrap;" vertex="1" parent="JL98l5iuzYsjPP6MtUeZ-2">
          <mxGeometry x="1122.375" width="107.625" height="40" as="geometry" />
        </mxCell>
        <mxCell id="JL98l5iuzYsjPP6MtUeZ-8" value="&lt;b&gt;&lt;font color=&quot;#ffffff&quot;&gt;Index&lt;/font&gt;&lt;/b&gt;" style="html=1;shadow=0;dashed=0;fillColor=none;strokeColor=none;shape=mxgraph.bootstrap.rect;fontColor=#999999;whiteSpace=wrap;" vertex="1" parent="JL98l5iuzYsjPP6MtUeZ-2">
          <mxGeometry x="290" width="123" height="40" as="geometry" />
        </mxCell>
        <mxCell id="JL98l5iuzYsjPP6MtUeZ-9" value="" style="rounded=0;whiteSpace=wrap;html=1;fillColor=#FFFFFF;labelBackgroundColor=#FFFFFF;" vertex="1" parent="JL98l5iuzYsjPP6MtUeZ-1">
          <mxGeometry width="1230" height="80" as="geometry" />
        </mxCell>
        <mxCell id="JL98l5iuzYsjPP6MtUeZ-10" value="Retrospective" style="text;html=1;strokeColor=none;fillColor=none;align=center;verticalAlign=middle;whiteSpace=wrap;rounded=0;fontSize=51;" vertex="1" parent="JL98l5iuzYsjPP6MtUeZ-1">
          <mxGeometry x="20" y="20" width="310" height="35" as="geometry" />
        </mxCell>
        <mxCell id="JL98l5iuzYsjPP6MtUeZ-17" value="Footer" style="html=1;shadow=0;dashed=0;shape=mxgraph.bootstrap.rrect;rSize=5;strokeColor=#B8DCFE;strokeWidth=1;fillColor=#CCE7FE;fontColor=#004583;whiteSpace=wrap;align=center;verticalAlign=middle;spacingLeft=10;fontSize=51;" vertex="1" parent="JL98l5iuzYsjPP6MtUeZ-1">
          <mxGeometry y="720" width="1240" height="250" as="geometry" />
        </mxCell>
        <mxCell id="JL98l5iuzYsjPP6MtUeZ-18" value="All Photographers" style="text;html=1;strokeColor=none;fillColor=none;align=center;verticalAlign=middle;whiteSpace=wrap;rounded=0;fontSize=51;" vertex="1" parent="JL98l5iuzYsjPP6MtUeZ-1">
          <mxGeometry x="40" y="160" width="420" height="30" as="geometry" />
        </mxCell>
        <mxCell id="JL98l5iuzYsjPP6MtUeZ-20" value="Name" style="text;html=1;strokeColor=none;fillColor=none;align=center;verticalAlign=middle;whiteSpace=wrap;rounded=0;fontSize=30;" vertex="1" parent="JL98l5iuzYsjPP6MtUeZ-1">
          <mxGeometry x="10" y="240" width="170" height="30" as="geometry" />
        </mxCell>
        <mxCell id="JL98l5iuzYsjPP6MtUeZ-21" value="Name" style="text;html=1;strokeColor=none;fillColor=none;align=center;verticalAlign=middle;whiteSpace=wrap;rounded=0;fontSize=30;" vertex="1" parent="JL98l5iuzYsjPP6MtUeZ-1">
          <mxGeometry x="10" y="280" width="170" height="30" as="geometry" />
        </mxCell>
        <mxCell id="JL98l5iuzYsjPP6MtUeZ-22" value="Name" style="text;html=1;strokeColor=none;fillColor=none;align=center;verticalAlign=middle;whiteSpace=wrap;rounded=0;fontSize=30;" vertex="1" parent="JL98l5iuzYsjPP6MtUeZ-1">
          <mxGeometry x="10" y="320" width="170" height="30" as="geometry" />
        </mxCell>
        <mxCell id="JL98l5iuzYsjPP6MtUeZ-23" value="Name" style="text;html=1;strokeColor=none;fillColor=none;align=center;verticalAlign=middle;whiteSpace=wrap;rounded=0;fontSize=30;" vertex="1" parent="JL98l5iuzYsjPP6MtUeZ-1">
          <mxGeometry x="10" y="360" width="170" height="30" as="geometry" />
        </mxCell>
        <mxCell id="JL98l5iuzYsjPP6MtUeZ-24" value="Name" style="text;html=1;strokeColor=none;fillColor=none;align=center;verticalAlign=middle;whiteSpace=wrap;rounded=0;fontSize=30;" vertex="1" parent="JL98l5iuzYsjPP6MtUeZ-1">
          <mxGeometry x="10" y="400" width="170" height="30" as="geometry" />
        </mxCell>
        <mxCell id="JL98l5iuzYsjPP6MtUeZ-25" value="Name" style="text;html=1;strokeColor=none;fillColor=none;align=center;verticalAlign=middle;whiteSpace=wrap;rounded=0;fontSize=30;" vertex="1" parent="JL98l5iuzYsjPP6MtUeZ-1">
          <mxGeometry x="10" y="440" width="170" height="30" as="geometry" />
        </mxCell>
      </root>
    </mxGraphModel>
  </diagram>
  <diagram name="Photographs" id="oCT1EpbxcKH7uOTOq-1W">
    <mxGraphModel dx="1293" dy="794" grid="1" gridSize="10" guides="1" tooltips="1" connect="1" arrows="1" fold="1" page="1" pageScale="1.5" pageWidth="826" pageHeight="1169" background="none" math="0" shadow="0">
      <root>
        <mxCell id="uutDmeLwpnbdSCwLQgvT-0" style=";html=1;" />
        <mxCell id="uutDmeLwpnbdSCwLQgvT-1" style=";html=1;" parent="uutDmeLwpnbdSCwLQgvT-0" />
        <mxCell id="uutDmeLwpnbdSCwLQgvT-2" value="" style="html=1;shadow=0;dashed=0;shape=mxgraph.bootstrap.rect;fillColor=#222222;strokeColor=none;whiteSpace=wrap;rounded=0;fontSize=12;fontColor=#000000;align=center;" vertex="1" parent="uutDmeLwpnbdSCwLQgvT-1">
          <mxGeometry y="80" width="1230" height="40" as="geometry" />
        </mxCell>
        <mxCell id="uutDmeLwpnbdSCwLQgvT-3" value="Small R logo" style="html=1;shadow=0;dashed=0;fillColor=none;strokeColor=none;shape=mxgraph.bootstrap.rect;fontColor=#999999;fontSize=14;whiteSpace=wrap;" vertex="1" parent="uutDmeLwpnbdSCwLQgvT-2">
          <mxGeometry width="123" height="40" as="geometry" />
        </mxCell>
        <mxCell id="uutDmeLwpnbdSCwLQgvT-4" value="&lt;font color=&quot;#cccccc&quot;&gt;Home&lt;/font&gt;" style="html=1;shadow=0;dashed=0;shape=mxgraph.bootstrap.rect;fillColor=#000000;strokeColor=none;fontColor=#ffffff;spacingRight=30;whiteSpace=wrap;" vertex="1" parent="uutDmeLwpnbdSCwLQgvT-2">
          <mxGeometry x="123" width="138.375" height="40" as="geometry" />
        </mxCell>
        <mxCell id="uutDmeLwpnbdSCwLQgvT-5" value="&lt;b&gt;&lt;font color=&quot;#ffffff&quot;&gt;Photographs&lt;/font&gt;&lt;/b&gt;" style="html=1;shadow=0;dashed=0;fillColor=none;strokeColor=none;shape=mxgraph.bootstrap.rect;fontColor=#999999;whiteSpace=wrap;" vertex="1" parent="uutDmeLwpnbdSCwLQgvT-2">
          <mxGeometry x="430.5" width="123" height="40" as="geometry" />
        </mxCell>
        <mxCell id="uutDmeLwpnbdSCwLQgvT-6" value="Shop" style="html=1;shadow=0;dashed=0;fillColor=none;strokeColor=none;shape=mxgraph.bootstrap.rect;fontColor=#999999;whiteSpace=wrap;" vertex="1" parent="uutDmeLwpnbdSCwLQgvT-2">
          <mxGeometry x="553.5" width="107.625" height="40" as="geometry" />
        </mxCell>
        <mxCell id="uutDmeLwpnbdSCwLQgvT-7" value="Login" style="html=1;shadow=0;dashed=0;fillColor=none;strokeColor=none;shape=mxgraph.bootstrap.rect;fontColor=#999999;whiteSpace=wrap;" vertex="1" parent="uutDmeLwpnbdSCwLQgvT-2">
          <mxGeometry x="1122.375" width="107.625" height="40" as="geometry" />
        </mxCell>
        <mxCell id="uutDmeLwpnbdSCwLQgvT-8" value="&lt;font color=&quot;#cccccc&quot;&gt;Index&lt;/font&gt;" style="html=1;shadow=0;dashed=0;fillColor=none;strokeColor=none;shape=mxgraph.bootstrap.rect;fontColor=#999999;whiteSpace=wrap;" vertex="1" parent="uutDmeLwpnbdSCwLQgvT-2">
          <mxGeometry x="290" width="123" height="40" as="geometry" />
        </mxCell>
        <mxCell id="uutDmeLwpnbdSCwLQgvT-9" value="" style="rounded=0;whiteSpace=wrap;html=1;fillColor=#FFFFFF;labelBackgroundColor=#FFFFFF;" vertex="1" parent="uutDmeLwpnbdSCwLQgvT-1">
          <mxGeometry width="1230" height="80" as="geometry" />
        </mxCell>
        <mxCell id="uutDmeLwpnbdSCwLQgvT-10" value="Retrospective" style="text;html=1;strokeColor=none;fillColor=none;align=center;verticalAlign=middle;whiteSpace=wrap;rounded=0;fontSize=51;" vertex="1" parent="uutDmeLwpnbdSCwLQgvT-1">
          <mxGeometry x="20" y="20" width="310" height="35" as="geometry" />
        </mxCell>
        <mxCell id="uutDmeLwpnbdSCwLQgvT-11" value="Footer" style="html=1;shadow=0;dashed=0;shape=mxgraph.bootstrap.rrect;rSize=5;strokeColor=#B8DCFE;strokeWidth=1;fillColor=#CCE7FE;fontColor=#004583;whiteSpace=wrap;align=center;verticalAlign=middle;spacingLeft=10;fontSize=51;" vertex="1" parent="uutDmeLwpnbdSCwLQgvT-1">
          <mxGeometry y="720" width="1240" height="250" as="geometry" />
        </mxCell>
        <mxCell id="uutDmeLwpnbdSCwLQgvT-12" value="Photographs" style="text;html=1;strokeColor=none;fillColor=none;align=center;verticalAlign=middle;whiteSpace=wrap;rounded=0;fontSize=51;" vertex="1" parent="uutDmeLwpnbdSCwLQgvT-1">
          <mxGeometry x="40" y="160" width="330" height="30" as="geometry" />
        </mxCell>
      </root>
    </mxGraphModel>
  </diagram>
  <diagram name="Login" id="AaDat34RplRleGSI142a">
    <mxGraphModel dx="1293" dy="794" grid="1" gridSize="10" guides="1" tooltips="1" connect="1" arrows="1" fold="1" page="1" pageScale="1.5" pageWidth="826" pageHeight="1169" background="none" math="0" shadow="0">
      <root>
        <mxCell id="9MXV7O9JpNRwR1q8kV3y-0" style=";html=1;" />
        <mxCell id="9MXV7O9JpNRwR1q8kV3y-1" style=";html=1;" parent="9MXV7O9JpNRwR1q8kV3y-0" />
        <mxCell id="9MXV7O9JpNRwR1q8kV3y-2" value="" style="html=1;shadow=0;dashed=0;shape=mxgraph.bootstrap.rect;fillColor=#222222;strokeColor=none;whiteSpace=wrap;rounded=0;fontSize=12;fontColor=#000000;align=center;" vertex="1" parent="9MXV7O9JpNRwR1q8kV3y-1">
          <mxGeometry y="80" width="1230" height="40" as="geometry" />
        </mxCell>
        <mxCell id="9MXV7O9JpNRwR1q8kV3y-3" value="Small R logo" style="html=1;shadow=0;dashed=0;fillColor=none;strokeColor=none;shape=mxgraph.bootstrap.rect;fontColor=#999999;fontSize=14;whiteSpace=wrap;" vertex="1" parent="9MXV7O9JpNRwR1q8kV3y-2">
          <mxGeometry width="123" height="40" as="geometry" />
        </mxCell>
        <mxCell id="9MXV7O9JpNRwR1q8kV3y-4" value="&lt;font color=&quot;#cccccc&quot;&gt;Home&lt;/font&gt;" style="html=1;shadow=0;dashed=0;shape=mxgraph.bootstrap.rect;fillColor=#000000;strokeColor=none;fontColor=#ffffff;spacingRight=30;whiteSpace=wrap;" vertex="1" parent="9MXV7O9JpNRwR1q8kV3y-2">
          <mxGeometry x="123" width="138.375" height="40" as="geometry" />
        </mxCell>
        <mxCell id="9MXV7O9JpNRwR1q8kV3y-5" value="&lt;font color=&quot;#cccccc&quot;&gt;Photographs&lt;/font&gt;" style="html=1;shadow=0;dashed=0;fillColor=none;strokeColor=none;shape=mxgraph.bootstrap.rect;fontColor=#999999;whiteSpace=wrap;" vertex="1" parent="9MXV7O9JpNRwR1q8kV3y-2">
          <mxGeometry x="430.5" width="123" height="40" as="geometry" />
        </mxCell>
        <mxCell id="9MXV7O9JpNRwR1q8kV3y-6" value="Shop" style="html=1;shadow=0;dashed=0;fillColor=none;strokeColor=none;shape=mxgraph.bootstrap.rect;fontColor=#999999;whiteSpace=wrap;" vertex="1" parent="9MXV7O9JpNRwR1q8kV3y-2">
          <mxGeometry x="553.5" width="107.625" height="40" as="geometry" />
        </mxCell>
        <mxCell id="9MXV7O9JpNRwR1q8kV3y-7" value="&lt;b&gt;&lt;font color=&quot;#ffffff&quot;&gt;Login&lt;/font&gt;&lt;/b&gt;" style="html=1;shadow=0;dashed=0;fillColor=none;strokeColor=none;shape=mxgraph.bootstrap.rect;fontColor=#999999;whiteSpace=wrap;" vertex="1" parent="9MXV7O9JpNRwR1q8kV3y-2">
          <mxGeometry x="1122.375" width="107.625" height="40" as="geometry" />
        </mxCell>
        <mxCell id="9MXV7O9JpNRwR1q8kV3y-8" value="&lt;font color=&quot;#cccccc&quot;&gt;Index&lt;/font&gt;" style="html=1;shadow=0;dashed=0;fillColor=none;strokeColor=none;shape=mxgraph.bootstrap.rect;fontColor=#999999;whiteSpace=wrap;" vertex="1" parent="9MXV7O9JpNRwR1q8kV3y-2">
          <mxGeometry x="290" width="123" height="40" as="geometry" />
        </mxCell>
        <mxCell id="9MXV7O9JpNRwR1q8kV3y-9" value="" style="rounded=0;whiteSpace=wrap;html=1;fillColor=#FFFFFF;labelBackgroundColor=#FFFFFF;" vertex="1" parent="9MXV7O9JpNRwR1q8kV3y-1">
          <mxGeometry width="1230" height="80" as="geometry" />
        </mxCell>
        <mxCell id="9MXV7O9JpNRwR1q8kV3y-10" value="Retrospective" style="text;html=1;strokeColor=none;fillColor=none;align=center;verticalAlign=middle;whiteSpace=wrap;rounded=0;fontSize=51;" vertex="1" parent="9MXV7O9JpNRwR1q8kV3y-1">
          <mxGeometry x="20" y="20" width="310" height="35" as="geometry" />
        </mxCell>
        <mxCell id="9MXV7O9JpNRwR1q8kV3y-11" value="Footer" style="html=1;shadow=0;dashed=0;shape=mxgraph.bootstrap.rrect;rSize=5;strokeColor=#B8DCFE;strokeWidth=1;fillColor=#CCE7FE;fontColor=#004583;whiteSpace=wrap;align=center;verticalAlign=middle;spacingLeft=10;fontSize=51;" vertex="1" parent="9MXV7O9JpNRwR1q8kV3y-1">
          <mxGeometry y="720" width="1240" height="250" as="geometry" />
        </mxCell>
        <mxCell id="09fE4uFNeGxnAIB9EPP5-0" value="&lt;font color=&quot;#000000&quot;&gt;Login&lt;/font&gt;" style="text;html=1;strokeColor=none;fillColor=none;align=center;verticalAlign=middle;whiteSpace=wrap;rounded=0;labelBackgroundColor=#FFFFFF;fontSize=30;fontColor=#FFFFFF;" vertex="1" parent="9MXV7O9JpNRwR1q8kV3y-1">
          <mxGeometry x="560" y="200" width="100" height="40" as="geometry" />
        </mxCell>
      </root>
    </mxGraphModel>
  </diagram>
</mxfile>
